<mxfile host="app.diagrams.net" modified="2024-02-07T20:29:36.628Z" agent="Mozilla/5.0 (Macintosh; Intel Mac OS X 10_15_7) AppleWebKit/537.36 (KHTML, like Gecko) Chrome/120.0.0.0 Safari/537.36" etag="JbfSOJOFWfXgQxt25Xlm" version="23.1.1" type="device">
  <diagram name="Page-1" id="vFZ1zXbOdK79V30mvHnR">
    <mxGraphModel dx="934" dy="505" grid="1" gridSize="10" guides="1" tooltips="1" connect="1" arrows="1" fold="1" page="1" pageScale="1" pageWidth="827" pageHeight="1169" math="0" shadow="0">
      <root>
        <mxCell id="0" />
        <mxCell id="1" parent="0" />
        <mxCell id="bSdtEr0OUdBRHMJcK1km-1" value="" style="whiteSpace=wrap;html=1;aspect=fixed;" vertex="1" parent="1">
          <mxGeometry x="300" y="60" width="550" height="550" as="geometry" />
        </mxCell>
        <mxCell id="bSdtEr0OUdBRHMJcK1km-3" value="Utilisateur passager" style="shape=umlActor;verticalLabelPosition=bottom;verticalAlign=top;html=1;outlineConnect=0;" vertex="1" parent="1">
          <mxGeometry x="100" y="160" width="40" height="80" as="geometry" />
        </mxCell>
        <mxCell id="bSdtEr0OUdBRHMJcK1km-7" value="Fait une recherche des trajets disponibles selon les filtres défini" style="ellipse;whiteSpace=wrap;html=1;" vertex="1" parent="1">
          <mxGeometry x="350" y="100" width="440" height="110" as="geometry" />
        </mxCell>
        <mxCell id="bSdtEr0OUdBRHMJcK1km-8" value="Utilisateur Conducteur" style="shape=umlActor;verticalLabelPosition=bottom;verticalAlign=top;html=1;outlineConnect=0;" vertex="1" parent="1">
          <mxGeometry x="100" y="340" width="40" height="80" as="geometry" />
        </mxCell>
        <mxCell id="bSdtEr0OUdBRHMJcK1km-10" value="" style="endArrow=classic;html=1;rounded=0;entryX=0.011;entryY=0.591;entryDx=0;entryDy=0;entryPerimeter=0;" edge="1" parent="1" source="bSdtEr0OUdBRHMJcK1km-3" target="bSdtEr0OUdBRHMJcK1km-7">
          <mxGeometry width="50" height="50" relative="1" as="geometry">
            <mxPoint x="370" y="350" as="sourcePoint" />
            <mxPoint x="420" y="300" as="targetPoint" />
          </mxGeometry>
        </mxCell>
        <mxCell id="bSdtEr0OUdBRHMJcK1km-11" value="Sélectionne un trajet" style="ellipse;whiteSpace=wrap;html=1;" vertex="1" parent="1">
          <mxGeometry x="360" y="250" width="430" height="100" as="geometry" />
        </mxCell>
        <mxCell id="bSdtEr0OUdBRHMJcK1km-12" value="Accepte la demande de prise en charge pour le trajets" style="ellipse;whiteSpace=wrap;html=1;" vertex="1" parent="1">
          <mxGeometry x="360" y="410" width="430" height="110" as="geometry" />
        </mxCell>
        <mxCell id="bSdtEr0OUdBRHMJcK1km-13" value="" style="endArrow=classic;html=1;rounded=0;" edge="1" parent="1" source="bSdtEr0OUdBRHMJcK1km-3" target="bSdtEr0OUdBRHMJcK1km-11">
          <mxGeometry width="50" height="50" relative="1" as="geometry">
            <mxPoint x="150" y="207" as="sourcePoint" />
            <mxPoint x="365" y="175" as="targetPoint" />
          </mxGeometry>
        </mxCell>
        <mxCell id="bSdtEr0OUdBRHMJcK1km-14" value="" style="endArrow=classic;html=1;rounded=0;exitX=0.5;exitY=0.5;exitDx=0;exitDy=0;exitPerimeter=0;entryX=0;entryY=0;entryDx=0;entryDy=0;" edge="1" parent="1" source="bSdtEr0OUdBRHMJcK1km-8" target="bSdtEr0OUdBRHMJcK1km-12">
          <mxGeometry width="50" height="50" relative="1" as="geometry">
            <mxPoint x="140" y="390" as="sourcePoint" />
            <mxPoint x="419" y="452" as="targetPoint" />
          </mxGeometry>
        </mxCell>
      </root>
    </mxGraphModel>
  </diagram>
</mxfile>
